<svg height="96" width="600" xmlns="http://www.w3.org/2000/svg"
>
	<radialGradient id="a" cx="0" cy="0"
		gradientTransform="matrix(14.601621 72.551895 -163.00816 32.806633 -125.76165 410.65844)"
		gradientUnits="userSpaceOnUse" r="1">
		<stop offset="0" stop-color="#001f3b"/>
		<stop offset="1" stop-color="#001f3b" stop-opacity="0"/>
	</radialGradient>
	<g transform="scale(1.7021277 1.7142857)">
		<path d="m0 0h165.5v28h-165.5z" fill="#ddd"/>
		<path d="m165.5 0h187v28h-187z" fill="#7bcdf4"/>
		<text fill="#fff" font-family="Verdana, Geneva, sans-serif" font-size="100"
			font-weight="bold" text-anchor="middle" transform="scale(.1)" x="2590" y="175">
			get_it
		</text>
		<g fill="none" transform="matrix(.04854978 0 0 .04820545 2.522985 2.071883)">
			<path
				d="m200.98358 131.81399 185.41535 186.27945c34.13476 34.29383 34.13476 89.89337 0 124.18721-34.13339 34.29247-89.47639 34.29247-123.60978 0l-146.78875-147.47283c-21.333878-21.43331-21.333878-56.18267 0-77.61598z"
				fill="#135c9c" stroke-width="1.368897"/>
			<path d="m-125.76163 410.65842h175.219729v76.65863h-175.219729z" fill="url(#a)"
				fill-opacity=".4" stroke-width="1.368904"
				transform="matrix(.70546103 -.70874871 .70546103 .70874871 0 0)"/>
			<path
				d="m116.0004 294.80919c-21.333878-21.4333-21.333878-56.18404 0-77.61735l146.78739-147.47146c34.13475-34.293837 89.47775-34.293837 123.61114 0 34.13476 34.29247 34.13476 89.89338 0 124.18584l-185.41535 186.28082z"
				fill="#7bcdf4" stroke-width="1.368897"/>
		</g>
		<path
			d="m83.52848 7.3718741c-1.765505 0-3.233592.5959799-4.403236 1.7876939-1.169648 1.169646-1.754534 2.637425-1.754534 4.402927s.584886 3.23816 1.754534 4.41884c1.180681 1.180679 2.648769 1.77178 4.403236 1.77178.937923 0 1.81471-.182252 2.631256-.546387.816545-.375169 1.506918-.899224 2.069673-1.572322l-1.108989-1.075799c-1.015165 1.158611-2.212645 1.73783-3.59194 1.73783-1.313095 0-2.411498-.44131-3.294248-1.324061-.871718-.871717-1.30745-2.008514-1.30745-3.409881s.435732-2.538164 1.30745-3.409881c.88275-.8827516 1.981153-1.3240612 3.294248-1.3240612 1.324123 0 2.410796.5132346 3.260443 1.5394332l1.09263-1.0588245c-1.11447-1.2910236-2.565503-1.9372874-4.353073-1.9372874zm58.96171.132618c-.29793 0-.55148.1043865-.76114.31404-.20965.2096536-.31404.4638308-.31404.7617594s.10439.5521059.31404.7617594c.20966.2096536.46321.3140401.76114.3140401s.55257-.1043865.76222-.3140401c.20966-.2096535.31405-.4638308.31405-.7617594s-.10439-.5521058-.31405-.7617594c-.20965-.2096535-.46429-.31404-.76222-.31404zm-110.735174.1326184v11.8507675h1.522269v-5.08087h4.866677v-1.42379h-4.866677v-3.8894289h5.395544v-1.4566786zm7.849058 0v11.8507675h1.522267v-11.8507675zm12.305725 1.258282v2.4826145h-1.424128v1.389839h1.424128v4.535545c.01104.728269.231561 1.296667.661903 1.70494.441375.408272.993239.612166 1.655302.612166.529651 0 .993086-.07192 1.390324-.215372l-.479798-1.35695c-.231722.09931-.47463.148533-.728421.148533-.264826 0-.497087-.104387-.695706-.314041-.187586-.209653-.281337-.552517-.281337-1.026995v-4.087826h3.774047v4.535545c.01104.728269.231561 1.296667.661903 1.70494.441375.408272.99324.612166 1.655303.612166.529651 0 .993085-.07192 1.390323-.215372l-.479798-1.35695c-.09931.04413-.210118.08253-.331497.115643-.110343.02207-.226475.03289-.347853.03289-.264826 0-.50132-.09357-.710973-.281151-.209653-.198619-.315141-.568004-.315141-1.108689v-4.039022h1.9868v-1.389844h-1.9868v-2.4826095h-1.522267v2.4826145h-3.774047v-2.4826145zm93.619471 0v2.4826145h-1.42303v1.389839h1.42303v4.535545c.0111.728269.23156 1.296667.66191 1.70494.44136.408272.99323.612166 1.65529.612166.52966 0 .99309-.07192 1.39032-.215372l-.47978-1.35695c-.0993.04413-.21012.08253-.33151.115643-.11034.02207-.22538.03289-.34676.03289-.26483 0-.50241-.09357-.71206-.281151-.20966-.198619-.31406-.568004-.31406-1.108689v-4.039022h1.98572v-1.389844h-1.98572v-2.4826095zm-80.950627 2.2173775c-1.169645 0-2.129539.413729-2.879877 1.241308-.750338.816544-1.125344 1.843014-1.125344 3.078864 0 1.246887.38674 2.278236 1.159148 3.09478.772406.816544 1.754683 1.225393 2.946396 1.225393.816546 0 1.544175-.193073 2.184171-.579277.65103-.386204 1.15922-.922139 1.523356-1.606272l-1.35761-.66203c-.551716.971026-1.313464 1.456679-2.284494 1.456679-.706196 0-1.312375-.242296-1.819958-.727809-.507581-.485513-.772868-1.125837-.794937-1.920313h6.372585l.01636-.165507c0-1.401368-.359039-2.48788-1.076271-3.260288-.706202-.783441-1.660772-1.175528-2.863524-1.175528zm28.032188 0c-1.202745 0-2.200987.407787-2.995462 1.224332-.783443.816545-1.175506 1.848955-1.175506 3.09584 0 1.246887.392063 2.278236 1.175506 3.09478.794475.816544 1.792717 1.225393 2.995462 1.225393 1.202752 0 2.195667-.408849 2.979111-1.225393.794475-.80551 1.191864-1.836859 1.191864-3.09478 0-1.246885-.397389-2.279295-1.191864-3.09584-.783444-.816545-1.776359-1.224332-2.979111-1.224332zm8.913339 0c-.47448 0-.95388.131969-1.43939.396794-.474479.264826-.828197.595808-1.059918.993046h-.06543v-1.124603h-1.456847v8.109871h1.522272v-4.485679c0-.673098.199233-1.257196.596477-1.753744.397236-.496547.888376-.745845 1.473196-.745845.65103 0 1.11446.171431 1.39032.513498.27585.331031.41328.877788.41328 1.639162v4.832608h1.52226v-4.485679c0-.673098.19925-1.257196.59649-1.753744.39723-.496547.88837-.745845 1.47319-.745845.65102 0 1.11446.171431 1.39032.513498.27585.331031.41329.877788.41329 1.639162v4.832608h1.52335v-5.064956c0-1.059301-.25464-1.875937-.76222-2.449724-.50759-.573789-1.22989-.860428-2.16782-.860428-1.19171 0-2.1239.518115-2.797 1.555347-.20965-.485513-.54099-.865718-.9934-1.141578-.4524-.27586-.97657-.413769-1.57242-.413769zm13.57719 0c-.47448 0-.95388.131969-1.43939.396794-.47449.264826-.82821.595808-1.05992.993046h-.0654v-1.124603h-1.45685v8.109871h1.52227v-4.485679c0-.673098.19924-1.257196.59647-1.753744.39725-.496547.88838-.745845 1.47321-.745845.65102 0 1.11446.171431 1.39032.513498.27586.331031.41329.877788.41329 1.639162v4.832608h1.52335v-4.485679c0-.673098.19815-1.257196.59538-1.753744.39724-.496547.88837-.745845 1.4732-.745845.65102 0 1.11446.171431 1.39032.513498.27586.331031.41437.877788.41437 1.639162v4.832608h1.52227v-5.064956c0-1.059301-.25355-1.875937-.76113-2.449724-.50758-.573789-1.23098-.860428-2.1689-.860428-1.19172 0-2.12391.518115-2.79701 1.555347-.20965-.485513-.54099-.865718-.9934-1.141578s-.97658-.413769-1.57243-.413769zm22.11432 0c-.51862 0-1.02149.131969-1.50701.396794-.47447.264826-.8271.595808-1.05882.993046h-.0665v-1.124603h-1.45576v8.109871h1.52227v-4.485679c0-.684132.20457-1.268231.61284-1.753744.40827-.496547.91537-.745845 1.52226-.745845 1.30206 0 1.97005.663025 2.00316 1.987151v4.998117h1.52227v-5.097846c0-1.048266-.27061-1.854081-.8113-2.416834-.52964-.573789-1.2903-.860428-2.2834-.860428zm-63.948333.03288c-.463442 0-.937526.154671-1.423038.463634-.47448.297928-.789848.662433-.944326 1.092775h-.06542v-1.324052h-1.456848v8.109871h1.522272v-4.468704c0-.617927.20988-1.158742.629187-1.622186.430341-.463446.932122-.69492 1.505909-.69492.408275 0 .706586.0384.894173.115643l.463442-1.473654c-.308964-.132413-.683969-.198397-1.125347-.198397zm-30.884807.232353v5.097845c0 1.048268.265286 1.858962.794937 2.43275.540686.562754 1.307754.844513 2.300849.844513.518616 0 1.015076-.13303 1.489555-.397854.485513-.264826.843461-.595808 1.075183-.993046h.06652v1.125667h1.456837v-8.109871h-1.523358v4.484619c0 .684133-.20347 1.275232-.611743 1.77178-.408271.485513-.916466.727809-1.523358.727809-1.30206 0-1.968965-.661964-2.002066-1.986092v-4.998116zm82.20901 0v5.097845c0 1.048268.2642 1.858962.79385 2.43275.54068.562754 1.30775.844513 2.30084.844513.51861 0 1.01508-.13303 1.48956-.397854.48551-.264826.84455-.595808 1.07627-.993046h.0654v1.125667h1.45684v-8.109871h-1.52227v4.484619c0 .684133-.20456 1.275232-.61283 1.77178-.40827.485513-.91538.727809-1.52227.727809-1.30204 0-1.97004-.661964-2.00316-1.986092v-4.998116zm17.1375 0v8.109875h1.52336v-8.109871zm7.47722 0 3.34332 7.596374-1.88757 4.088886h1.57242l5.08151-11.68526h-1.65531l-2.34992 5.825655h-.0327l-2.41646-5.825655zm-84.660338 1.124603c.695164 0 1.247031.188193 1.6553.563362.419308.364135.651571.827086.695705 1.389839h-4.651856c.132413-.595856.403022-1.069628.811295-1.422728.419309-.353101.915764-.530473 1.489556-.530473zm28.064899 0c.73931 0 1.367867.276879 1.886481.828598.507582.540685.762227 1.241052.762227 2.101734 0 .871717-.254645 1.578025-.762227 2.11871s-1.136139.810563-1.886481.810563c-.750335 0-1.378892-.269878-1.886474-.810563s-.762227-1.246993-.762227-2.11871c0-.860682.254645-1.561049.762227-2.101734.518615-.551719 1.147172-.828598 1.886474-.828598z"
			fill="#09487e" transform="scale(.98989555 1.0102076)"/>
		<text font-family="Verdana, Geneva, sans-serif" font-size="10" font-weight="bold" x="0.0" y="44.0">
			<tspan font-family="Verdana, Geneva, sans-serif">Thomas Burkhart (@escamoteur)</tspan>
		</text>
	</g>
</svg>